P3
# CREATOR: GIMP PNM Filter Version 1.1
128 24
31
1
0
0
1
0
0
1
0
0
1
0
0
1
0
0
1
0
0
1
0
0
1
0
0
1
0
0
1
0
0
1
0
0
1
0
0
1
0
0
1
0
0
1
0
0
1
0
0
1
0
0
1
0
0
1
0
0
1
0
0
1
0
0
1
0
0
1
0
0
1
0
0
1
0
0
1
0
0
1
0
0
1
0
0
1
0
0
1
0
0
1
0
0
1
0
0
1
0
0
1
0
0
1
0
0
1
0
0
1
0
0
1
0
0
1
0
0
1
0
0
1
0
0
1
0
0
1
0
0
1
0
0
1
0
0
1
0
0
1
0
0
1
0
0
1
0
0
1
0
0
1
0
0
1
0
0
1
0
0
1
0
0
1
0
0
1
0
0
1
0
0
1
0
0
1
0
0
1
0
0
1
0
0
1
0
0
1
0
0
1
0
0
1
0
0
1
0
0
1
0
0
1
0
0
1
0
0
1
0
0
1
0
0
1
0
0
1
0
0
1
0
0
1
0
0
1
0
0
1
0
0
1
0
0
1
0
0
1
0
0
1
0
0
1
0
0
1
0
0
1
0
0
1
0
0
1
0
0
1
0
0
1
0
0
1
0
0
1
0
0
1
0
0
1
0
0
1
0
0
1
0
0
1
0
0
1
0
0
1
0
0
1
0
0
1
0
0
1
0
0
1
0
0
17
0
0
1
0
0
1
0
0
1
0
0
1
0
0
1
0
0
1
0
0
1
0
0
1
0
0
1
0
0
1
0
0
1
0
0
1
0
0
1
0
0
1
0
0
1
0
0
1
0
0
1
0
0
1
0
0
1
0
0
1
0
0
1
0
0
1
0
0
1
0
0
1
0
0
1
0
0
1
0
0
3
0
0
1
0
0
1
0
0
1
0
0
1
0
0
1
0
0
1
0
0
1
0
0
1
0
0
1
0
0
1
0
0
1
0
0
1
0
0
1
0
0
1
0
0
1
0
0
1
0
0
1
0
0
1
0
0
1
0
0
1
0
0
1
0
0
1
0
0
1
0
0
1
0
0
1
0
0
1
0
0
1
0
0
1
0
0
1
0
0
1
0
0
1
0
0
1
0
0
1
0
0
1
0
0
1
0
0
1
0
0
1
0
0
3
0
0
3
0
0
3
0
0
1
0
0
1
0
0
1
0
0
1
0
0
1
0
0
1
0
0
1
0
0
1
0
0
1
0
0
1
0
0
1
0
0
1
0
0
1
0
0
1
0
0
1
0
0
1
0
0
1
0
0
1
0
0
1
0
0
1
0
0
1
0
0
1
0
0
1
0
0
1
0
0
1
0
0
1
0
0
1
0
0
1
0
0
1
0
0
1
0
0
1
0
0
1
0
0
1
0
0
1
0
0
1
0
0
1
0
0
3
0
0
3
0
0
3
0
0
3
0
0
3
0
0
3
0
0
3
0
0
3
0
0
3
0
0
1
0
0
1
0
0
1
0
0
1
0
0
1
0
0
1
0
0
1
0
0
1
0
0
1
0
0
1
0
0
1
0
0
1
0
0
1
0
0
1
0
0
1
0
0
17
0
0
1
0
0
1
0
0
1
0
0
1
0
0
1
0
0
1
0
0
1
0
0
1
0
0
1
0
0
1
0
0
1
0
0
1
0
0
1
0
0
1
0
0
1
0
0
1
0
0
1
0
0
1
0
0
1
0
0
1
0
0
1
0
0
1
0
0
1
0
0
1
0
0
1
0
0
1
0
0
31
31
31
3
0
0
3
0
0
3
0
0
1
0
0
1
0
0
1
0
0
3
0
0
3
0
0
3
0
0
3
0
0
1
0
0
1
0
0
1
0
0
1
0
0
1
0
0
1
0
0
1
0
0
1
0
0
1
0
0
1
0
0
1
0
0
1
0
0
1
0
0
1
0
0
1
0
0
1
0
0
1
0
0
1
0
0
3
0
0
3
0
0
3
0
0
3
0
0
3
0
0
3
0
0
3
0
0
3
0
0
5
0
0
31
31
31
31
31
31
31
31
31
3
0
0
3
0
0
3
0
0
3
0
0
3
0
0
3
0
0
3
0
0
1
0
0
1
0
0
1
0
0
1
0
0
1
0
0
1
0
0
1
0
0
1
0
0
1
0
0
1
0
0
1
0
0
1
0
0
1
0
0
1
0
0
1
0
0
1
0
0
1
0
0
1
0
0
1
0
0
1
0
0
1
0
0
1
0
0
1
0
0
1
0
0
1
0
0
1
0
0
3
0
0
3
0
0
5
0
0
31
31
31
31
31
31
31
31
31
31
31
31
31
31
31
31
31
31
31
31
31
31
31
31
31
31
31
3
0
0
1
0
0
1
0
0
1
0
0
1
0
0
1
0
0
1
0
0
1
0
0
1
0
0
1
0
0
1
0
0
1
0
0
1
0
0
1
0
0
1
0
0
17
0
0
1
0
0
1
0
0
1
0
0
1
0
0
1
0
0
1
0
0
1
0
0
1
0
0
1
0
0
1
0
0
1
0
0
1
0
0
1
0
0
1
0
0
1
0
0
1
0
0
1
0
0
1
0
0
1
0
0
1
0
0
1
0
0
1
0
0
1
0
0
1
0
0
1
0
0
1
0
0
31
31
31
31
31
31
31
31
31
31
31
31
3
0
0
3
0
0
5
0
0
31
31
31
31
31
31
31
31
31
31
31
31
3
0
0
3
0
0
3
0
0
3
0
0
3
0
0
3
0
0
1
0
0
1
0
0
1
0
0
1
0
0
1
0
0
1
0
0
1
0
0
3
0
0
3
0
0
3
0
0
3
0
0
5
0
0
31
31
31
31
31
31
31
31
31
31
31
31
31
31
31
31
31
31
31
31
31
31
31
31
31
31
31
31
31
31
31
31
31
31
31
31
31
31
31
31
31
31
31
31
31
31
31
31
31
31
31
31
31
31
31
31
31
3
0
0
3
0
0
3
0
0
3
0
0
1
0
0
1
0
0
1
0
0
1
0
0
1
0
0
1
0
0
1
0
0
1
0
0
1
0
0
1
0
0
1
0
0
1
0
0
1
0
0
1
0
0
1
0
0
1
0
0
1
0
0
1
0
0
1
0
0
3
0
0
3
0
0
5
0
0
31
31
31
31
31
31
31
31
31
31
31
31
31
31
31
31
31
31
31
31
31
31
31
31
31
31
31
31
31
31
31
31
31
31
31
31
31
31
31
3
0
0
1
0
0
1
0
0
1
0
0
1
0
0
1
0
0
1
0
0
1
0
0
1
0
0
1
0
0
1
0
0
1
0
0
1
0
0
1
0
0
17
0
0
1
0
0
1
0
0
1
0
0
1
0
0
1
0
0
1
0
0
1
0
0
1
0
0
1
0
0
1
0
0
1
0
0
1
0
0
1
0
0
1
0
0
1
0
0
1
0
0
1
0
0
1
0
0
1
0
0
1
0
0
1
0
0
1
0
0
3
0
0
3
0
0
3
0
0
3
0
0
31
31
31
31
31
31
31
31
31
31
31
31
31
31
31
31
31
31
31
31
31
31
31
31
31
31
31
31
31
31
31
31
31
31
31
31
15
0
0
31
31
31
31
31
31
31
31
31
31
31
31
3
0
0
3
0
0
3
0
0
3
0
0
3
0
0
3
0
0
5
0
0
31
31
31
31
31
31
31
31
31
31
31
31
31
31
31
31
31
31
31
31
31
31
31
31
31
31
31
31
31
31
0
31
0
31
31
31
31
31
31
31
31
31
31
31
31
31
31
31
31
31
31
31
31
31
31
31
31
31
31
31
31
31
31
31
31
31
31
31
31
31
31
31
31
31
31
31
31
31
31
31
31
31
31
31
3
0
0
3
0
0
1
0
0
1
0
0
1
0
0
1
0
0
1
0
0
1
0
0
1
0
0
1
0
0
1
0
0
1
0
0
1
0
0
1
0
0
1
0
0
1
0
0
3
0
0
3
0
0
5
0
0
31
31
31
31
31
31
31
31
31
31
31
31
31
31
31
31
31
31
31
31
31
31
31
31
31
31
31
31
31
31
31
31
31
31
31
31
31
31
31
31
31
31
31
31
31
31
31
31
31
31
31
3
0
0
1
0
0
1
0
0
1
0
0
1
0
0
1
0
0
1
0
0
1
0
0
1
0
0
1
0
0
1
0
0
1
0
0
1
0
0
17
0
0
1
0
0
1
0
0
1
0
0
1
0
0
1
0
0
1
0
0
1
0
0
1
0
0
1
0
0
1
0
0
1
0
0
1
0
0
1
0
0
1
0
0
1
0
0
1
0
0
1
0
0
1
0
0
3
0
0
3
0
0
3
0
0
5
0
0
31
31
31
31
31
31
31
31
31
31
31
31
31
31
31
31
31
31
31
31
31
31
31
31
31
31
31
31
31
31
31
31
31
31
31
31
31
31
31
31
31
31
31
31
31
31
31
31
15
0
0
31
31
31
31
31
31
31
31
31
31
31
31
31
31
31
31
31
31
31
31
31
15
0
0
31
31
31
31
31
31
31
31
31
31
31
31
31
31
31
31
31
31
31
31
31
31
31
31
31
31
31
31
31
31
31
31
31
31
31
31
31
31
31
31
31
31
31
31
31
31
31
31
31
31
31
31
31
31
31
31
31
31
31
31
31
31
31
31
31
31
31
31
31
31
31
31
31
31
31
31
31
31
31
31
31
31
31
31
31
31
31
31
31
31
31
31
31
31
31
31
31
31
31
3
0
0
3
0
0
3
0
0
1
0
0
1
0
0
1
0
0
1
0
0
1
0
0
1
0
0
1
0
0
1
0
0
1
0
0
1
0
0
5
0
0
31
31
31
31
31
31
31
31
31
31
31
31
31
31
31
31
31
31
31
31
31
31
31
31
31
31
31
0
31
0
31
31
31
31
31
31
31
31
31
31
31
31
31
31
31
31
31
31
31
31
31
31
31
31
31
31
31
31
31
31
31
31
31
3
0
0
1
0
0
1
0
0
1
0
0
1
0
0
1
0
0
1
0
0
1
0
0
1
0
0
1
0
0
1
0
0
1
0
0
17
0
0
1
0
0
1
0
0
1
0
0
1
0
0
1
0
0
1
0
0
1
0
0
1
0
0
1
0
0
1
0
0
1
0
0
1
0
0
1
0
0
3
0
0
3
0
0
3
0
0
3
0
0
5
0
0
31
31
31
31
31
31
31
31
31
31
31
31
31
31
31
31
31
31
31
31
31
31
31
31
31
31
31
0
0
31
31
31
31
31
31
31
31
31
31
31
31
31
31
31
31
31
31
31
31
31
31
31
31
31
31
31
31
31
31
31
15
0
0
31
31
31
31
31
31
31
31
31
31
31
31
31
31
31
31
31
31
31
31
31
15
0
0
31
31
31
31
31
31
31
31
31
31
31
31
31
31
31
31
31
31
31
31
31
31
31
31
31
31
31
31
31
31
31
31
31
31
31
31
31
31
31
31
31
31
31
31
31
31
31
31
31
31
31
31
31
31
31
31
31
0
31
0
31
31
31
31
31
31
31
31
31
31
31
31
31
31
31
31
31
31
31
31
31
31
31
31
31
31
31
31
31
31
31
31
31
31
31
31
31
31
31
31
31
31
31
31
31
31
31
31
3
0
0
3
0
0
3
0
0
3
0
0
3
0
0
1
0
0
1
0
0
1
0
0
1
0
0
5
0
0
31
31
31
31
31
31
31
31
31
31
31
31
31
31
31
31
31
31
31
31
31
31
31
31
31
31
31
31
31
31
31
31
31
31
31
31
31
31
31
31
31
31
31
31
31
31
31
31
31
31
31
31
31
31
31
31
31
31
31
31
31
31
31
31
31
31
31
31
31
3
0
0
3
0
0
3
0
0
1
0
0
1
0
0
1
0
0
1
0
0
1
0
0
1
0
0
1
0
0
1
0
0
17
0
0
1
0
0
1
0
0
1
0
0
1
0
0
1
0
0
1
0
0
1
0
0
1
0
0
1
0
0
1
0
0
1
0
0
3
0
0
5
0
0
31
31
31
31
31
31
31
31
31
31
31
31
31
31
31
31
31
31
31
31
31
31
31
31
31
31
31
31
31
31
31
31
31
31
31
31
31
31
31
31
31
31
31
31
31
31
31
31
31
31
31
31
31
31
31
31
31
31
31
31
31
31
31
31
31
31
31
31
31
0
0
31
31
31
31
15
0
0
31
31
31
0
31
0
31
31
31
31
31
31
31
31
31
31
31
31
31
31
31
15
0
0
31
31
31
31
31
31
31
31
31
31
31
31
31
31
31
31
31
31
31
31
31
31
31
31
31
31
31
31
31
31
31
31
31
31
31
31
31
31
31
31
31
31
31
31
31
31
31
31
31
31
31
31
31
31
31
31
31
31
31
31
31
31
31
31
31
31
31
31
31
31
31
31
31
31
31
31
31
31
31
31
31
0
31
0
31
31
31
31
31
31
31
31
31
31
31
31
31
31
31
31
31
31
31
31
31
31
31
31
31
31
31
31
31
31
31
31
31
31
31
31
31
31
31
3
0
0
3
0
0
3
0
0
5
0
0
31
31
31
31
31
31
0
31
0
31
31
31
31
31
31
0
31
0
31
31
31
31
31
31
31
31
31
31
31
31
31
31
31
31
31
31
31
31
31
31
31
31
31
31
31
31
31
31
31
31
31
31
31
31
31
31
31
31
31
31
31
31
31
31
31
31
31
31
31
31
31
31
31
31
31
31
31
31
31
31
31
3
0
0
3
0
0
3
0
0
3
0
0
3
0
0
3
0
0
3
0
0
3
0
0
17
0
0
1
0
0
1
0
0
1
0
0
1
0
0
1
0
0
1
0
0
1
0
0
1
0
0
1
0
0
1
0
0
5
0
0
31
31
31
31
31
31
31
31
31
31
31
31
31
31
31
31
31
31
31
31
31
31
31
31
31
31
31
31
31
31
31
31
31
31
31
31
31
31
31
31
31
31
31
31
31
31
31
31
31
31
31
31
31
31
31
31
31
31
31
31
0
31
0
31
31
31
31
31
31
31
31
31
31
31
31
31
31
31
31
31
31
15
0
0
31
31
31
31
31
31
31
31
31
31
31
31
31
31
31
31
31
31
31
31
31
15
0
0
31
31
31
31
31
31
31
31
31
31
31
31
31
31
31
0
31
0
31
31
31
31
31
31
31
31
31
31
31
31
31
31
31
0
31
0
31
31
31
31
31
31
31
31
31
31
31
31
31
31
31
31
31
31
31
31
31
31
31
31
31
31
31
31
31
31
31
31
31
31
31
31
31
31
31
31
31
31
31
31
31
31
31
31
31
31
31
31
31
31
31
31
31
31
31
31
31
31
31
31
31
31
31
31
31
31
31
31
31
31
31
31
31
31
31
31
31
31
31
31
31
31
31
31
31
31
31
31
31
31
31
31
31
31
31
31
31
31
31
31
31
31
31
31
31
31
31
31
31
31
31
31
31
31
31
31
31
31
31
31
31
31
31
31
31
31
31
31
31
31
31
31
31
31
31
31
31
31
31
31
31
31
31
31
31
31
31
31
31
31
31
31
31
31
31
0
31
0
31
31
31
31
31
31
31
31
31
31
31
31
31
31
31
31
31
31
31
31
31
31
31
31
31
31
31
31
31
31
31
31
31
31
31
31
31
31
31
31
31
31
17
0
0
1
0
0
1
0
0
1
0
0
1
0
0
1
0
0
1
0
0
1
0
0
1
0
0
1
0
0
1
0
0
31
31
31
31
31
31
31
31
31
31
31
31
31
31
31
31
31
31
31
31
31
31
31
31
31
31
31
31
31
31
31
31
31
31
31
31
31
31
31
31
31
31
31
31
31
31
31
31
31
31
31
31
31
31
31
31
31
31
31
31
31
31
31
31
31
31
31
31
31
31
31
31
31
31
31
31
31
31
31
31
31
31
31
31
15
0
0
31
31
31
31
31
31
31
31
31
31
31
31
31
31
31
31
31
31
31
31
31
15
0
0
31
31
31
31
31
31
31
31
31
31
31
31
31
31
31
31
31
31
31
31
31
31
31
31
31
31
31
31
31
31
31
31
31
31
31
31
31
31
31
31
31
31
31
31
31
31
31
31
31
31
31
31
31
31
31
31
31
0
31
0
31
31
31
31
31
31
31
31
31
31
31
31
31
31
31
31
31
31
31
31
31
31
31
31
31
31
31
31
31
31
31
31
31
31
31
31
31
31
31
31
31
31
31
31
31
31
31
31
0
31
0
31
31
31
31
31
31
31
31
31
31
31
31
31
31
31
31
31
31
31
31
31
31
31
31
0
31
0
31
31
31
31
31
31
31
31
31
31
31
31
31
31
31
31
31
31
31
31
31
7
0
0
7
0
0
7
0
0
9
0
0
31
31
31
31
31
31
31
31
31
31
31
31
31
31
31
31
31
31
31
31
31
31
31
31
31
31
31
31
31
31
31
31
31
31
31
31
31
31
31
31
31
31
31
31
31
31
31
31
31
31
31
31
31
31
31
31
31
31
31
31
31
31
31
31
31
31
31
31
31
17
0
0
3
0
0
1
0
0
1
0
0
1
0
0
1
0
0
1
0
0
1
0
0
1
0
0
1
0
0
5
0
0
31
31
31
31
31
31
31
31
31
31
31
31
31
31
31
31
31
31
31
31
31
31
31
31
31
31
31
31
31
31
31
31
31
0
31
0
31
31
31
31
31
31
31
31
31
31
31
31
31
31
31
0
0
31
31
31
31
31
31
31
31
31
31
31
31
31
31
31
31
31
31
31
31
31
31
31
31
31
31
31
31
31
31
31
15
0
0
31
31
31
31
31
31
31
31
31
17
0
0
31
31
31
31
31
31
31
31
31
15
0
0
31
31
31
31
31
31
31
31
31
0
0
31
31
31
31
31
31
31
31
31
31
31
31
31
31
31
31
31
31
31
31
31
31
31
31
31
0
0
31
31
31
31
31
31
31
31
31
31
31
31
31
31
31
31
31
31
31
31
31
31
31
31
31
31
31
31
31
31
31
31
31
31
31
31
31
31
31
31
31
31
31
31
31
31
0
0
31
31
31
31
31
31
31
31
31
31
31
31
31
31
31
31
31
31
31
31
31
31
31
31
31
31
31
31
31
31
31
31
31
31
31
31
31
31
31
31
31
31
31
31
31
31
31
31
31
31
31
31
31
31
31
31
31
31
31
31
31
31
31
31
31
31
31
31
31
31
7
0
0
5
0
0
5
0
0
5
0
0
5
0
0
7
0
0
9
0
0
31
31
31
31
31
31
31
31
31
31
31
31
31
31
31
31
31
31
31
31
31
31
31
31
31
31
31
31
31
31
31
31
31
31
31
31
31
31
31
31
31
31
31
31
31
31
31
31
31
31
31
31
31
31
31
31
31
31
31
31
31
31
31
17
0
0
31
31
31
3
0
0
3
0
0
3
0
0
1
0
0
1
0
0
1
0
0
3
0
0
5
0
0
31
31
31
31
31
31
31
31
31
31
31
31
31
31
31
0
31
0
31
31
31
31
31
31
31
31
31
31
31
31
31
31
31
31
31
31
31
31
31
31
31
31
31
31
31
31
31
31
31
31
31
31
31
31
31
31
31
31
31
31
31
31
31
31
31
31
31
31
31
31
31
31
31
31
31
31
31
31
31
31
31
31
31
31
31
31
31
31
31
31
31
31
31
31
31
31
31
31
31
15
0
0
31
31
31
31
31
31
31
31
31
31
31
31
31
31
31
31
31
31
31
31
31
31
31
31
31
31
31
31
31
31
31
31
31
31
31
31
31
31
31
31
31
31
31
31
31
31
31
31
31
31
31
31
31
31
31
31
31
31
31
31
31
31
31
31
31
31
31
31
31
31
31
31
31
31
31
31
31
31
31
31
31
31
31
31
31
31
31
31
31
31
31
31
31
31
31
31
31
31
31
31
31
31
31
31
31
31
31
31
31
31
31
31
31
31
31
31
31
31
31
31
31
31
31
31
31
31
31
31
31
31
31
31
31
31
31
31
31
31
0
31
0
31
31
31
31
31
31
31
31
31
31
31
31
31
31
31
31
31
31
31
31
31
31
31
31
31
31
31
5
0
0
5
0
0
5
0
0
5
0
0
5
0
0
5
0
0
5
0
0
31
31
31
31
31
31
31
31
31
31
31
31
31
31
31
31
31
31
31
31
31
31
31
31
31
31
31
31
31
31
31
31
31
31
31
31
31
31
31
31
31
31
31
31
31
31
31
31
31
31
31
31
31
31
31
31
31
31
31
31
31
31
31
17
0
0
31
31
31
31
31
31
31
31
31
31
31
31
3
0
0
3
0
0
5
0
0
31
31
31
31
31
31
31
31
31
31
31
31
0
31
0
31
31
31
31
31
31
31
31
31
31
31
31
31
31
31
31
31
31
31
31
31
31
31
31
31
31
31
31
31
31
31
31
31
31
31
31
31
31
31
31
31
31
31
31
31
31
31
31
31
31
31
0
31
0
31
31
31
31
31
31
31
31
31
31
31
31
31
31
31
0
31
0
31
31
31
31
31
31
31
31
31
31
31
31
31
31
31
31
31
31
15
0
0
31
31
31
31
31
31
31
31
31
31
31
31
31
31
31
31
31
31
31
31
31
31
31
31
31
31
31
31
31
31
31
31
31
31
31
31
31
31
31
31
31
31
31
31
31
31
31
31
0
31
0
31
31
31
31
31
31
31
31
31
31
31
31
31
31
31
31
31
31
31
31
31
31
31
31
31
31
31
31
31
31
31
31
31
31
31
31
31
31
31
31
31
31
31
31
31
31
31
31
31
31
31
31
31
31
0
31
0
31
31
31
31
31
31
31
31
31
31
31
31
31
31
31
31
31
31
31
31
31
31
31
31
0
31
0
31
31
31
31
31
31
31
31
31
31
31
31
31
31
31
31
31
31
31
31
31
0
0
31
31
31
31
31
31
31
31
31
31
5
0
0
5
0
0
5
0
0
5
0
0
5
0
0
5
0
0
5
0
0
9
0
0
31
31
31
31
31
31
31
31
31
31
31
31
31
31
31
31
31
31
31
31
31
31
31
31
31
31
31
31
31
31
31
31
31
31
31
31
0
31
0
31
31
31
31
31
31
31
31
31
31
31
31
31
31
31
31
31
31
31
31
31
17
0
0
31
31
31
31
31
31
31
31
31
31
31
31
31
31
31
31
31
31
31
31
31
31
31
31
31
31
31
31
31
31
31
31
31
31
31
31
31
31
31
31
31
31
31
31
31
31
31
31
31
31
31
31
31
31
31
31
31
31
31
31
31
31
31
31
31
31
31
31
31
31
31
31
31
31
31
31
31
31
31
31
31
31
31
31
31
31
31
31
31
31
31
31
31
31
31
31
31
31
31
17
0
0
31
31
31
31
31
31
31
31
31
31
31
31
31
31
31
31
31
31
31
31
31
31
31
31
15
0
0
31
31
31
31
31
31
0
31
0
31
31
31
31
31
31
31
31
31
31
31
31
31
31
31
31
31
31
0
31
0
31
31
31
31
31
31
31
31
31
31
31
31
31
31
31
31
31
31
31
31
31
31
31
31
31
31
31
31
31
31
31
31
31
31
31
31
31
31
31
31
31
31
31
31
31
31
31
31
31
31
31
31
31
31
31
31
31
31
31
31
31
31
31
31
31
31
31
31
31
31
31
31
31
31
31
31
31
31
31
31
31
31
31
31
31
31
31
31
31
31
31
31
31
31
31
31
31
31
31
31
31
31
31
31
31
31
31
31
31
31
31
31
31
31
31
31
31
31
31
31
31
31
31
31
31
31
31
31
31
31
31
31
31
31
31
7
0
0
5
0
0
5
0
0
5
0
0
5
0
0
5
0
0
5
0
0
5
0
0
5
0
0
31
31
31
31
31
31
31
31
31
31
31
31
0
0
31
31
31
31
31
31
31
31
31
31
31
31
31
31
31
31
31
31
31
31
31
31
31
31
31
31
31
31
31
31
31
31
31
31
31
31
31
31
31
31
31
31
31
31
31
31
17
0
0
31
31
31
31
31
31
31
31
31
0
0
31
31
31
31
31
31
31
31
31
31
31
31
31
31
31
31
31
31
31
31
31
31
31
31
31
31
31
31
31
31
31
31
31
31
31
31
31
31
31
31
31
31
31
31
31
31
31
31
31
31
31
31
31
31
31
31
31
31
31
31
31
31
31
31
31
31
31
31
31
31
31
31
31
31
31
31
31
31
31
31
31
31
31
31
31
31
31
31
15
0
0
31
31
31
31
31
31
31
31
31
31
31
31
31
31
31
31
31
31
31
31
31
31
31
31
15
0
0
31
31
31
31
31
31
31
31
31
31
31
31
31
31
31
31
31
31
31
31
31
31
31
31
31
31
31
31
31
31
31
31
31
31
31
31
31
31
31
31
31
31
31
31
31
31
31
31
31
31
31
31
31
31
31
31
31
31
31
31
31
31
31
31
31
31
31
31
31
0
31
0
31
31
31
31
31
31
31
31
31
31
31
31
31
31
31
31
31
31
31
31
31
31
31
31
31
31
31
31
31
31
31
31
31
31
31
31
31
31
31
31
31
31
31
31
31
31
31
31
31
31
31
31
31
31
31
31
31
31
31
31
31
31
31
31
31
31
31
31
31
31
31
31
31
31
31
31
31
31
31
31
31
31
31
31
31
31
31
31
31
31
7
0
0
5
0
0
5
0
0
5
0
0
5
0
0
5
0
0
5
0
0
5
0
0
5
0
0
5
0
0
31
31
31
31
31
31
31
31
31
31
31
31
31
31
31
31
31
31
31
31
31
31
31
31
31
31
31
31
31
31
31
31
31
31
31
31
31
31
31
31
31
31
31
31
31
31
31
31
31
31
31
31
31
31
31
31
31
31
31
31
17
0
0
31
31
31
31
31
31
31
31
31
31
31
31
31
31
31
31
31
31
31
31
31
31
31
31
31
31
31
31
31
31
31
31
31
31
31
31
31
31
31
31
31
31
31
31
31
31
31
31
31
31
31
31
31
31
31
31
31
31
31
31
0
31
0
31
31
31
31
31
31
31
31
31
31
31
31
31
31
31
31
31
31
31
31
31
31
31
31
31
31
31
31
31
31
31
31
31
31
31
31
15
0
0
31
31
31
31
31
31
31
31
31
31
31
31
31
31
31
31
31
31
31
31
31
31
31
31
15
0
0
31
31
31
31
31
31
31
31
31
31
31
31
31
31
31
31
31
31
31
31
31
31
31
31
31
31
31
31
31
31
31
31
31
31
31
31
31
31
31
31
31
31
31
31
31
31
31
31
7
0
0
7
0
0
9
0
0
31
31
31
31
31
31
31
31
31
31
31
31
31
31
31
31
31
31
31
31
31
31
31
31
31
31
31
31
31
31
31
31
31
0
31
0
31
31
31
31
31
31
31
31
31
7
0
0
7
0
0
7
0
0
7
0
0
7
0
0
9
0
0
31
31
31
31
31
31
31
31
31
7
0
0
9
0
0
31
31
31
31
31
31
31
31
31
31
31
31
31
31
31
31
31
31
31
31
31
7
0
0
7
0
0
5
0
0
5
0
0
5
0
0
5
0
0
5
0
0
5
0
0
5
0
0
5
0
0
5
0
0
5
0
0
31
31
31
31
31
31
31
31
31
31
31
31
31
31
31
31
31
31
31
31
31
0
31
0
31
31
31
31
31
31
31
31
31
31
31
31
31
31
31
31
31
31
31
31
31
31
31
31
31
31
31
31
31
31
31
31
31
31
31
31
17
0
0
31
31
31
31
31
31
31
31
31
31
31
31
31
31
31
31
31
31
0
31
0
31
31
31
31
31
31
31
31
31
31
31
31
31
31
31
31
31
31
31
31
31
31
31
31
31
31
31
31
31
31
31
31
31
31
31
31
31
31
31
31
31
31
31
31
31
31
31
31
31
31
31
31
31
31
7
0
0
31
31
31
31
31
31
31
31
31
31
31
31
31
31
31
31
31
31
31
31
31
15
0
0
31
31
31
31
31
31
31
31
31
31
31
31
31
31
31
0
0
31
31
31
31
31
31
31
15
0
0
31
31
31
31
31
31
31
31
31
7
0
0
9
0
0
31
31
31
31
31
31
31
31
31
31
31
31
31
31
31
31
31
31
31
31
31
31
31
31
31
31
31
31
31
31
31
31
31
5
0
0
5
0
0
5
0
0
7
0
0
9
0
0
31
31
31
31
31
31
31
31
31
31
31
31
31
31
31
31
31
31
31
31
31
31
31
31
31
31
31
31
31
31
31
31
31
31
31
31
7
0
0
5
0
0
5
0
0
5
0
0
5
0
0
5
0
0
5
0
0
9
0
0
31
31
31
31
31
31
5
0
0
5
0
0
7
0
0
9
0
0
31
31
31
31
31
31
31
31
31
31
31
31
31
31
31
5
0
0
5
0
0
5
0
0
5
0
0
5
0
0
5
0
0
5
0
0
5
0
0
5
0
0
5
0
0
5
0
0
5
0
0
31
31
31
31
31
31
31
31
31
31
31
31
31
31
31
31
31
31
31
31
31
31
31
31
31
31
31
31
31
31
31
31
31
31
31
31
0
31
0
31
31
31
31
31
31
31
31
31
31
31
31
31
31
31
31
31
31
31
31
31
17
0
0
31
31
31
31
31
31
31
31
31
31
31
31
31
31
31
31
31
31
31
31
31
31
31
31
31
31
31
31
31
31
31
31
31
31
31
31
31
31
31
31
31
31
31
31
31
0
31
0
31
31
31
31
31
31
31
31
31
31
31
31
31
31
31
31
31
31
7
0
0
7
0
0
7
0
0
5
0
0
31
31
31
31
31
31
31
31
31
7
0
0
9
0
0
31
31
31
31
31
31
15
0
0
31
31
31
31
31
31
31
31
31
31
31
31
31
31
31
31
31
31
31
31
31
31
31
31
15
0
0
31
31
31
31
31
31
7
0
0
5
0
0
5
0
0
9
0
0
31
31
31
31
31
31
31
31
31
31
31
31
31
31
31
31
31
31
31
31
31
31
31
31
31
31
31
7
0
0
5
0
0
5
0
0
5
0
0
5
0
0
5
0
0
31
31
31
31
31
31
31
31
31
31
31
31
31
31
31
31
31
31
31
31
31
31
31
31
31
31
31
31
31
31
31
31
31
7
0
0
5
0
0
5
0
0
5
0
0
5
0
0
5
0
0
5
0
0
5
0
0
5
0
0
7
0
0
7
0
0
5
0
0
5
0
0
5
0
0
5
0
0
7
0
0
9
0
0
31
31
31
31
31
31
31
31
31
5
0
0
5
0
0
5
0
0
5
0
0
5
0
0
5
0
0
5
0
0
5
0
0
5
0
0
5
0
0
5
0
0
5
0
0
9
0
0
31
31
31
31
31
31
31
31
31
31
31
31
31
31
31
31
31
31
31
31
31
31
31
31
31
31
31
31
31
31
31
31
31
31
31
31
31
31
31
31
31
31
31
31
31
31
31
31
31
31
31
31
31
31
31
31
31
17
0
0
31
31
31
31
31
31
31
31
31
31
31
31
31
31
31
31
31
31
31
31
31
31
31
31
31
31
31
31
31
31
31
31
31
31
31
31
31
31
31
31
31
31
31
31
31
31
31
31
31
31
31
31
31
31
31
31
31
31
31
31
31
31
31
7
0
0
5
0
0
5
0
0
5
0
0
5
0
0
31
31
31
7
0
0
7
0
0
5
0
0
5
0
0
7
0
0
7
0
0
7
0
0
7
0
0
9
0
0
31
31
31
31
31
31
31
31
31
31
31
31
7
0
0
9
0
0
15
0
0
31
31
31
31
31
31
5
0
0
5
0
0
5
0
0
5
0
0
31
31
31
31
31
31
31
31
31
31
31
31
31
31
31
0
31
0
31
31
31
31
31
31
31
31
31
5
0
0
5
0
0
5
0
0
5
0
0
5
0
0
5
0
0
9
0
0
31
31
31
31
31
31
31
31
31
31
31
31
31
31
31
31
31
31
31
31
31
31
31
31
31
31
31
7
0
0
5
0
0
5
0
0
5
0
0
5
0
0
5
0
0
5
0
0
5
0
0
5
0
0
5
0
0
5
0
0
5
0
0
5
0
0
5
0
0
5
0
0
5
0
0
5
0
0
5
0
0
7
0
0
7
0
0
7
0
0
5
0
0
5
0
0
5
0
0
5
0
0
5
0
0
5
0
0
5
0
0
5
0
0
5
0
0
5
0
0
5
0
0
5
0
0
5
0
0
9
0
0
31
31
31
31
31
31
31
31
31
31
31
31
31
31
31
31
31
31
31
31
31
31
31
31
31
31
31
31
31
31
31
31
31
31
31
31
31
31
31
31
31
31
31
31
31
7
0
0
7
0
0
7
0
0
17
0
0
31
31
31
31
31
31
31
31
31
31
31
31
31
31
31
31
31
31
31
31
31
31
31
31
31
31
31
31
31
31
7
0
0
7
0
0
7
0
0
7
0
0
9
0
0
31
31
31
31
31
31
31
31
31
31
31
31
31
31
31
7
0
0
5
0
0
5
0
0
5
0
0
5
0
0
5
0
0
7
0
0
5
0
0
5
0
0
5
0
0
5
0
0
5
0
0
5
0
0
5
0
0
5
0
0
5
0
0
7
0
0
7
0
0
7
0
0
7
0
0
5
0
0
5
0
0
7
0
0
7
0
0
7
0
0
5
0
0
5
0
0
5
0
0
5
0
0
9
0
0
31
31
31
31
31
31
31
31
31
31
31
31
31
31
31
31
31
31
31
31
31
31
31
31
5
0
0
5
0
0
5
0
0
5
0
0
5
0
0
5
0
0
5
0
0
31
31
31
31
31
31
31
31
31
31
31
31
31
31
31
31
31
31
31
31
31
31
31
31
7
0
0
5
0
0
5
0
0
5
0
0
5
0
0
5
0
0
5
0
0
5
0
0
5
0
0
5
0
0
5
0
0
5
0
0
5
0
0
5
0
0
5
0
0
5
0
0
5
0
0
5
0
0
5
0
0
5
0
0
5
0
0
5
0
0
5
0
0
5
0
0
5
0
0
5
0
0
5
0
0
5
0
0
5
0
0
5
0
0
5
0
0
5
0
0
5
0
0
5
0
0
5
0
0
5
0
0
7
0
0
9
0
0
31
31
31
31
31
31
31
31
31
31
31
31
31
31
31
31
31
31
31
31
31
31
31
31
31
31
31
31
31
31
31
31
31
31
31
31
7
0
0
5
0
0
5
0
0
5
0
0
17
0
0
9
0
0
31
31
31
31
31
31
31
31
31
31
31
31
31
31
31
7
0
0
7
0
0
7
0
0
7
0
0
5
0
0
5
0
0
5
0
0
5
0
0
5
0
0
9
0
0
31
31
31
31
31
31
7
0
0
7
0
0
5
0
0
5
0
0
5
0
0
5
0
0
5
0
0
5
0
0
5
0
0
5
0
0
5
0
0
5
0
0
5
0
0
5
0
0
5
0
0
5
0
0
5
0
0
5
0
0
5
0
0
5
0
0
5
0
0
5
0
0
5
0
0
5
0
0
5
0
0
5
0
0
5
0
0
5
0
0
5
0
0
5
0
0
5
0
0
5
0
0
31
31
31
31
31
31
31
31
31
31
31
31
31
31
31
31
31
31
31
31
31
7
0
0
5
0
0
5
0
0
5
0
0
5
0
0
5
0
0
5
0
0
5
0
0
9
0
0
31
31
31
31
31
31
31
31
31
7
0
0
7
0
0
7
0
0
7
0
0
5
0
0
5
0
0
5
0
0
5
0
0
5
0
0
5
0
0
5
0
0
5
0
0
5
0
0
5
0
0
5
0
0
5
0
0
5
0
0
5
0
0
5
0
0
5
0
0
5
0
0
5
0
0
5
0
0
5
0
0
5
0
0
5
0
0
5
0
0
5
0
0
5
0
0
5
0
0
5
0
0
5
0
0
5
0
0
5
0
0
5
0
0
5
0
0
5
0
0
5
0
0
5
0
0
5
0
0
5
0
0
5
0
0
7
0
0
7
0
0
7
0
0
7
0
0
7
0
0
9
0
0
31
31
31
31
31
31
31
31
31
31
31
31
7
0
0
7
0
0
5
0
0
5
0
0
5
0
0
5
0
0
17
0
0
5
0
0
7
0
0
7
0
0
7
0
0
7
0
0
7
0
0
5
0
0
5
0
0
5
0
0
5
0
0
5
0
0
5
0
0
5
0
0
5
0
0
5
0
0
5
0
0
7
0
0
7
0
0
5
0
0
5
0
0
5
0
0
5
0
0
5
0
0
5
0
0
5
0
0
5
0
0
5
0
0
5
0
0
5
0
0
5
0
0
5
0
0
5
0
0
5
0
0
5
0
0
5
0
0
5
0
0
5
0
0
5
0
0
5
0
0
5
0
0
5
0
0
5
0
0
5
0
0
5
0
0
5
0
0
5
0
0
5
0
0
5
0
0
5
0
0
5
0
0
9
0
0
31
31
31
31
31
31
31
31
31
7
0
0
7
0
0
7
0
0
5
0
0
5
0
0
5
0
0
5
0
0
5
0
0
5
0
0
5
0
0
5
0
0
5
0
0
7
0
0
7
0
0
7
0
0
5
0
0
5
0
0
5
0
0
5
0
0
5
0
0
5
0
0
5
0
0
5
0
0
5
0
0
5
0
0
5
0
0
5
0
0
5
0
0
5
0
0
5
0
0
5
0
0
5
0
0
5
0
0
5
0
0
5
0
0
5
0
0
5
0
0
5
0
0
5
0
0
5
0
0
5
0
0
5
0
0
5
0
0
5
0
0
5
0
0
5
0
0
5
0
0
5
0
0
5
0
0
5
0
0
5
0
0
5
0
0
5
0
0
5
0
0
5
0
0
5
0
0
5
0
0
5
0
0
5
0
0
5
0
0
5
0
0
5
0
0
5
0
0
7
0
0
7
0
0
7
0
0
7
0
0
5
0
0
5
0
0
5
0
0
5
0
0
5
0
0
5
0
0
17
0
0
5
0
0
5
0
0
5
0
0
5
0
0
5
0
0
5
0
0
5
0
0
5
0
0
5
0
0
5
0
0
5
0
0
5
0
0
5
0
0
5
0
0
5
0
0
5
0
0
5
0
0
5
0
0
5
0
0
5
0
0
5
0
0
5
0
0
5
0
0
5
0
0
5
0
0
5
0
0
5
0
0
5
0
0
5
0
0
5
0
0
5
0
0
5
0
0
5
0
0
5
0
0
5
0
0
5
0
0
5
0
0
5
0
0
5
0
0
5
0
0
5
0
0
5
0
0
5
0
0
5
0
0
5
0
0
5
0
0
5
0
0
5
0
0
5
0
0
5
0
0
5
0
0
7
0
0
7
0
0
7
0
0
5
0
0
5
0
0
5
0
0
5
0
0
5
0
0
5
0
0
5
0
0
5
0
0
5
0
0
5
0
0
5
0
0
5
0
0
5
0
0
5
0
0
5
0
0
5
0
0
5
0
0
5
0
0
5
0
0
5
0
0
5
0
0
5
0
0
5
0
0
5
0
0
5
0
0
5
0
0
5
0
0
5
0
0
5
0
0
5
0
0
5
0
0
5
0
0
5
0
0
5
0
0
5
0
0
5
0
0
5
0
0
5
0
0
5
0
0
5
0
0
5
0
0
5
0
0
5
0
0
5
0
0
5
0
0
5
0
0
5
0
0
5
0
0
5
0
0
5
0
0
5
0
0
5
0
0
5
0
0
5
0
0
5
0
0
5
0
0
5
0
0
5
0
0
5
0
0
5
0
0
5
0
0
5
0
0
5
0
0
5
0
0
5
0
0
5
0
0
5
0
0
5
0
0
5
0
0
5
0
0
5
0
0
5
0
0
5
0
0
17
0
0
5
0
0
5
0
0
5
0
0
5
0
0
5
0
0
5
0
0
5
0
0
5
0
0
5
0
0
5
0
0
5
0
0
5
0
0
5
0
0
5
0
0
5
0
0
5
0
0
5
0
0
5
0
0
5
0
0
5
0
0
5
0
0
5
0
0
5
0
0
5
0
0
5
0
0
5
0
0
5
0
0
5
0
0
5
0
0
5
0
0
5
0
0
5
0
0
5
0
0
5
0
0
5
0
0
5
0
0
5
0
0
5
0
0
5
0
0
5
0
0
5
0
0
5
0
0
5
0
0
5
0
0
5
0
0
5
0
0
5
0
0
5
0
0
5
0
0
5
0
0
5
0
0
5
0
0
5
0
0
5
0
0
5
0
0
5
0
0
5
0
0
5
0
0
5
0
0
5
0
0
5
0
0
5
0
0
5
0
0
5
0
0
5
0
0
5
0
0
5
0
0
5
0
0
5
0
0
5
0
0
5
0
0
5
0
0
5
0
0
5
0
0
5
0
0
5
0
0
5
0
0
5
0
0
5
0
0
5
0
0
5
0
0
5
0
0
5
0
0
5
0
0
5
0
0
5
0
0
5
0
0
5
0
0
5
0
0
5
0
0
5
0
0
5
0
0
5
0
0
5
0
0
5
0
0
5
0
0
5
0
0
5
0
0
5
0
0
5
0
0
5
0
0
5
0
0
5
0
0
5
0
0
5
0
0
5
0
0
5
0
0
5
0
0
5
0
0
5
0
0
5
0
0
5
0
0
5
0
0
5
0
0
5
0
0
5
0
0
5
0
0
5
0
0
5
0
0
5
0
0
5
0
0
5
0
0
5
0
0
5
0
0
5
0
0
5
0
0
5
0
0
17
0
0
5
0
0
5
0
0
5
0
0
5
0
0
5
0
0
5
0
0
5
0
0
5
0
0
5
0
0
5
0
0
5
0
0
5
0
0
5
0
0
5
0
0
5
0
0
5
0
0
5
0
0
5
0
0
5
0
0
5
0
0
5
0
0
5
0
0
5
0
0
5
0
0
5
0
0
5
0
0
