P3
# CREATOR: GIMP PNM Filter Version 1.1
128 24
255
11
0
0
11
0
0
11
0
0
11
0
0
11
0
0
11
0
0
11
0
0
11
0
0
11
0
0
11
0
0
11
0
0
11
0
0
11
0
0
11
0
0
11
0
0
11
0
0
11
0
0
11
0
0
11
0
0
11
0
0
11
0
0
11
0
0
11
0
0
11
0
0
11
0
0
11
0
0
11
0
0
11
0
0
11
0
0
11
0
0
11
0
0
11
0
0
11
0
0
11
0
0
11
0
0
11
0
0
11
0
0
11
0
0
11
0
0
11
0
0
11
0
0
11
0
0
11
0
0
11
0
0
11
0
0
11
0
0
11
0
0
11
0
0
11
0
0
11
0
0
11
0
0
11
0
0
11
0
0
11
0
0
11
0
0
11
0
0
11
0
0
11
0
0
11
0
0
11
0
0
11
0
0
11
0
0
11
0
0
11
0
0
11
0
0
11
0
0
11
0
0
11
0
0
11
0
0
11
0
0
11
0
0
11
0
0
11
0
0
11
0
0
11
0
0
11
0
0
11
0
0
11
0
0
11
0
0
11
0
0
11
0
0
11
0
0
11
0
0
11
0
0
11
0
0
11
0
0
11
0
0
11
0
0
11
0
0
11
0
0
11
0
0
11
0
0
11
0
0
11
0
0
11
0
0
11
0
0
11
0
0
11
0
0
11
0
0
11
0
0
11
0
0
180
0
0
11
0
0
11
0
0
11
0
0
11
0
0
11
0
0
11
0
0
11
0
0
11
0
0
11
0
0
11
0
0
11
0
0
11
0
0
11
0
0
11
0
0
11
0
0
11
0
0
11
0
0
11
0
0
11
0
0
11
0
0
11
0
0
11
0
0
11
0
0
11
0
0
11
0
0
11
0
0
21
0
0
11
0
0
11
0
0
11
0
0
11
0
0
11
0
0
11
0
0
11
0
0
11
0
0
11
0
0
11
0
0
11
0
0
11
0
0
11
0
0
11
0
0
11
0
0
11
0
0
11
0
0
11
0
0
11
0
0
11
0
0
11
0
0
11
0
0
11
0
0
11
0
0
11
0
0
11
0
0
11
0
0
11
0
0
11
0
0
11
0
0
11
0
0
11
0
0
11
0
0
11
0
0
11
0
0
11
0
0
11
0
0
41
0
0
41
0
0
41
0
0
11
0
0
11
0
0
11
0
0
11
0
0
11
0
0
11
0
0
11
0
0
11
0
0
11
0
0
11
0
0
11
0
0
11
0
0
11
0
0
11
0
0
11
0
0
11
0
0
11
0
0
11
0
0
11
0
0
11
0
0
11
0
0
11
0
0
11
0
0
11
0
0
11
0
0
11
0
0
11
0
0
11
0
0
11
0
0
11
0
0
11
0
0
11
0
0
11
0
0
11
0
0
11
0
0
11
0
0
41
0
0
41
0
0
41
0
0
41
0
0
41
0
0
41
0
0
41
0
0
41
0
0
41
0
0
11
0
0
11
0
0
11
0
0
11
0
0
11
0
0
11
0
0
11
0
0
11
0
0
11
0
0
11
0
0
11
0
0
11
0
0
11
0
0
11
0
0
11
0
0
180
0
0
11
0
0
11
0
0
11
0
0
11
0
0
11
0
0
11
0
0
11
0
0
11
0
0
11
0
0
11
0
0
11
0
0
11
0
0
11
0
0
11
0
0
11
0
0
11
0
0
11
0
0
11
0
0
11
0
0
11
0
0
11
0
0
11
0
0
11
0
0
11
0
0
11
0
0
11
0
0
255
255
255
21
0
0
41
0
0
41
0
0
11
0
0
11
0
0
11
0
0
41
0
0
41
0
0
41
0
0
41
0
0
11
0
0
11
0
0
11
0
0
11
0
0
11
0
0
11
0
0
11
0
0
11
0
0
11
0
0
11
0
0
11
0
0
11
0
0
11
0
0
11
0
0
11
0
0
11
0
0
11
0
0
11
0
0
41
0
0
41
0
0
41
0
0
41
0
0
41
0
0
41
0
0
41
0
0
41
0
0
31
0
0
255
255
255
255
255
255
255
255
255
21
0
0
41
0
0
41
0
0
41
0
0
41
0
0
41
0
0
41
0
0
11
0
0
11
0
0
11
0
0
11
0
0
11
0
0
11
0
0
11
0
0
11
0
0
11
0
0
11
0
0
11
0
0
11
0
0
11
0
0
11
0
0
11
0
0
11
0
0
11
0
0
11
0
0
11
0
0
11
0
0
11
0
0
11
0
0
11
0
0
11
0
0
11
0
0
11
0
0
41
0
0
41
0
0
31
0
0
255
255
255
255
255
255
100
0
0
255
255
255
0
255
0
0
255
0
255
255
255
255
255
255
255
255
255
21
0
0
11
0
0
11
0
0
11
0
0
11
0
0
11
0
0
11
0
0
11
0
0
11
0
0
11
0
0
11
0
0
11
0
0
11
0
0
11
0
0
11
0
0
180
0
0
11
0
0
11
0
0
11
0
0
11
0
0
11
0
0
11
0
0
11
0
0
11
0
0
11
0
0
11
0
0
11
0
0
11
0
0
11
0
0
11
0
0
11
0
0
11
0
0
11
0
0
11
0
0
11
0
0
11
0
0
11
0
0
11
0
0
11
0
0
11
0
0
11
0
0
11
0
0
255
255
255
255
255
255
255
255
255
255
255
255
21
0
0
41
0
0
31
0
0
255
255
255
255
255
255
255
255
255
255
255
255
21
0
0
41
0
0
41
0
0
41
0
0
41
0
0
41
0
0
11
0
0
11
0
0
11
0
0
11
0
0
11
0
0
11
0
0
11
0
0
41
0
0
41
0
0
41
0
0
41
0
0
31
0
0
255
255
255
255
255
255
255
255
255
255
255
255
255
255
255
130
0
0
255
255
255
255
255
255
255
255
255
255
255
255
255
255
255
255
255
255
255
255
255
130
0
0
255
255
255
255
255
255
255
255
255
255
255
255
255
255
255
21
0
0
41
0
0
41
0
0
41
0
0
11
0
0
11
0
0
11
0
0
11
0
0
11
0
0
11
0
0
11
0
0
11
0
0
11
0
0
11
0
0
11
0
0
11
0
0
11
0
0
11
0
0
11
0
0
11
0
0
11
0
0
11
0
0
11
0
0
41
0
0
41
0
0
31
0
0
255
255
255
255
255
255
255
255
255
255
255
255
255
255
255
100
0
0
255
255
255
255
255
255
255
255
255
255
255
255
255
255
255
255
255
255
255
255
255
21
0
0
11
0
0
11
0
0
11
0
0
11
0
0
11
0
0
11
0
0
11
0
0
11
0
0
11
0
0
11
0
0
11
0
0
11
0
0
11
0
0
180
0
0
11
0
0
11
0
0
11
0
0
11
0
0
11
0
0
11
0
0
11
0
0
11
0
0
11
0
0
11
0
0
11
0
0
11
0
0
11
0
0
11
0
0
11
0
0
11
0
0
11
0
0
11
0
0
11
0
0
11
0
0
11
0
0
11
0
0
41
0
0
41
0
0
41
0
0
41
0
0
255
255
255
255
255
255
255
255
255
255
255
255
255
255
255
255
255
255
255
255
255
255
255
255
255
255
255
255
255
255
255
255
255
255
255
255
160
0
0
255
255
255
255
255
255
255
255
255
255
255
255
21
0
0
41
0
0
41
0
0
41
0
0
41
0
0
41
0
0
31
0
0
255
255
255
255
255
255
255
255
255
130
0
0
255
255
255
255
255
255
255
255
255
0
255
0
255
255
255
255
255
255
130
0
0
255
255
255
255
255
255
255
255
255
0
0
255
255
255
255
255
255
255
255
255
255
130
0
0
255
255
255
0
255
0
255
255
255
0
255
0
255
255
255
255
255
255
255
255
255
130
0
0
255
255
255
21
0
0
41
0
0
11
0
0
11
0
0
11
0
0
11
0
0
11
0
0
11
0
0
11
0
0
11
0
0
11
0
0
11
0
0
11
0
0
11
0
0
11
0
0
11
0
0
41
0
0
41
0
0
31
0
0
0
255
0
100
0
0
255
255
255
255
255
255
255
255
255
255
255
255
255
255
255
255
255
255
100
0
0
255
255
255
255
255
255
255
255
255
255
255
255
255
255
255
255
255
255
255
255
255
255
255
255
21
0
0
11
0
0
11
0
0
11
0
0
11
0
0
11
0
0
11
0
0
11
0
0
11
0
0
11
0
0
11
0
0
11
0
0
11
0
0
180
0
0
11
0
0
11
0
0
11
0
0
11
0
0
11
0
0
11
0
0
11
0
0
11
0
0
11
0
0
11
0
0
11
0
0
11
0
0
11
0
0
11
0
0
11
0
0
11
0
0
11
0
0
11
0
0
41
0
0
41
0
0
41
0
0
31
0
0
255
255
255
255
255
255
255
255
255
255
255
255
255
255
255
255
255
255
255
255
255
255
255
255
255
255
255
255
255
255
255
255
255
255
255
255
255
255
255
0
0
255
255
255
255
255
255
255
160
0
0
255
255
255
255
255
255
255
255
255
255
255
255
255
255
255
255
255
255
255
255
255
160
0
0
255
255
255
255
255
255
255
255
255
255
255
255
255
255
255
255
255
255
130
0
0
255
255
255
0
255
0
255
255
255
255
255
255
0
255
0
255
255
255
120
0
0
255
255
255
255
255
255
255
255
255
255
255
255
255
255
255
255
255
255
255
255
255
130
0
0
255
255
255
255
255
255
255
255
255
255
255
255
255
255
255
255
255
255
255
255
255
130
0
0
255
255
255
255
255
255
255
255
255
21
0
0
41
0
0
41
0
0
11
0
0
11
0
0
11
0
0
11
0
0
11
0
0
11
0
0
11
0
0
11
0
0
11
0
0
11
0
0
31
0
0
255
255
255
255
255
255
0
255
0
255
255
255
100
0
0
255
255
255
255
255
255
255
255
255
255
255
255
255
255
255
255
255
255
100
0
0
255
255
255
255
255
255
255
255
255
255
255
255
255
255
255
255
255
255
255
255
255
0
255
0
255
255
255
21
0
0
11
0
0
11
0
0
11
0
0
11
0
0
11
0
0
11
0
0
11
0
0
11
0
0
11
0
0
11
0
0
11
0
0
180
0
0
11
0
0
11
0
0
11
0
0
11
0
0
11
0
0
11
0
0
11
0
0
11
0
0
11
0
0
11
0
0
11
0
0
11
0
0
11
0
0
41
0
0
41
0
0
41
0
0
41
0
0
31
0
0
255
255
255
255
255
255
255
255
255
255
255
255
255
255
255
255
255
255
255
255
255
255
255
255
255
255
255
255
255
255
255
255
255
255
255
255
255
255
255
255
255
255
255
255
255
255
255
255
255
255
255
255
255
255
255
255
255
255
255
255
160
0
0
255
255
255
0
255
0
255
255
255
0
255
0
255
255
255
255
255
255
255
255
255
160
0
0
255
255
255
255
255
255
255
255
255
255
255
255
255
255
255
255
255
255
130
0
0
255
255
255
255
255
255
255
255
255
255
255
255
255
255
255
255
255
255
255
255
255
255
255
255
255
255
255
255
255
255
255
255
255
255
255
255
255
255
255
255
255
255
120
0
0
255
255
255
255
255
255
255
255
255
255
255
255
255
255
255
255
255
255
255
255
255
130
0
0
255
255
255
0
255
0
255
255
255
255
255
255
255
255
255
255
255
255
21
0
0
41
0
0
41
0
0
41
0
0
41
0
0
11
0
0
11
0
0
11
0
0
11
0
0
31
0
0
255
255
255
255
255
255
255
255
255
255
255
255
255
255
255
90
0
0
255
255
255
255
255
255
255
255
255
255
255
255
255
255
255
255
255
255
90
0
0
255
255
255
255
255
255
255
255
255
255
255
255
0
0
255
255
255
255
255
255
255
255
255
255
255
255
255
255
255
255
21
0
0
41
0
0
41
0
0
11
0
0
11
0
0
11
0
0
11
0
0
11
0
0
11
0
0
11
0
0
11
0
0
180
0
0
11
0
0
11
0
0
11
0
0
11
0
0
11
0
0
11
0
0
11
0
0
11
0
0
11
0
0
11
0
0
11
0
0
41
0
0
31
0
0
255
255
255
255
255
255
255
255
255
255
255
255
255
255
255
255
255
255
255
255
255
255
255
255
255
255
255
255
255
255
255
255
255
255
255
255
255
255
255
255
255
255
255
255
255
255
255
255
255
255
255
0
255
0
255
255
255
255
255
255
255
255
255
255
255
255
255
255
255
255
255
255
255
255
255
160
0
0
255
255
255
255
255
255
255
255
255
255
255
255
255
255
255
255
255
255
255
255
255
160
0
0
255
255
255
255
255
255
255
255
255
255
255
255
255
255
255
255
255
255
130
0
0
255
255
255
255
255
255
255
255
255
255
255
255
255
255
255
255
255
255
255
255
255
255
255
255
255
255
255
255
255
255
255
255
255
255
255
255
255
255
255
255
255
255
255
255
255
255
255
255
255
255
255
255
255
255
255
255
255
255
255
255
255
255
255
255
255
255
120
0
0
255
255
255
255
255
255
255
255
255
255
255
255
255
255
255
255
255
255
255
255
255
255
255
255
130
0
0
255
255
255
255
255
255
21
0
0
41
0
0
41
0
0
31
0
0
255
255
255
255
255
255
255
255
255
255
255
255
255
255
255
255
255
255
255
255
255
255
255
255
255
255
255
255
255
255
255
255
255
255
255
255
255
255
255
255
255
255
255
255
255
255
255
255
255
255
255
255
255
255
255
255
255
255
255
255
255
255
255
255
255
255
0
255
0
255
255
255
255
255
255
100
0
0
255
255
255
21
0
0
41
0
0
41
0
0
41
0
0
41
0
0
41
0
0
41
0
0
41
0
0
180
0
0
11
0
0
11
0
0
11
0
0
11
0
0
11
0
0
11
0
0
11
0
0
11
0
0
11
0
0
11
0
0
31
0
0
255
255
255
255
255
255
255
255
255
255
255
255
255
255
255
255
255
255
255
255
255
255
255
255
255
255
255
255
255
255
255
255
255
255
255
255
255
255
255
255
255
255
255
255
255
255
255
255
255
255
255
255
255
255
255
255
255
255
255
255
255
255
255
255
255
255
255
255
255
255
255
255
255
255
255
255
255
255
255
255
255
160
0
0
255
255
255
255
255
255
255
255
255
255
255
255
255
255
255
255
255
255
255
255
255
160
0
0
255
255
255
255
255
255
0
0
255
255
255
255
255
255
255
255
255
255
130
0
0
255
255
255
255
255
255
255
255
255
255
255
255
255
255
255
255
255
255
255
255
255
255
255
255
255
255
255
255
255
255
255
255
255
255
255
255
255
255
255
255
255
255
255
255
255
255
255
255
255
255
255
255
255
255
255
255
255
255
255
255
255
255
255
255
255
255
255
255
255
255
255
255
255
255
255
255
255
255
255
255
255
255
255
255
255
255
255
255
255
255
255
255
255
130
0
0
255
255
255
0
255
0
255
255
255
255
255
255
100
0
0
255
255
255
255
255
255
255
255
255
255
255
255
255
255
255
255
255
255
255
255
255
255
255
255
255
255
255
255
255
255
255
255
255
255
255
255
255
255
255
255
255
255
255
255
255
255
255
255
255
255
255
255
255
255
255
255
255
255
255
255
255
255
255
255
255
255
255
255
255
255
255
255
255
255
255
255
255
255
100
0
0
255
255
255
255
255
255
0
255
0
0
255
0
255
255
255
100
0
0
255
255
255
255
255
255
255
255
255
180
0
0
11
0
0
11
0
0
11
0
0
11
0
0
11
0
0
11
0
0
11
0
0
11
0
0
11
0
0
11
0
0
255
255
255
255
255
255
255
255
255
255
255
255
255
255
255
255
255
255
255
255
255
255
255
255
255
255
255
255
255
255
255
255
255
255
255
255
255
255
255
255
255
255
255
255
255
255
255
255
255
255
255
255
255
255
255
255
255
255
255
255
255
255
255
255
255
255
255
255
255
255
255
255
255
255
255
255
255
255
255
255
255
255
255
255
160
0
0
255
255
255
255
255
255
255
255
255
255
255
255
255
255
255
255
255
255
255
255
255
160
0
0
255
255
255
255
255
255
255
255
255
255
255
255
255
255
255
255
255
255
120
0
0
255
255
255
255
255
255
255
255
255
255
255
255
255
255
255
255
255
255
255
255
255
255
255
255
255
255
255
255
255
255
255
255
255
255
255
255
255
255
255
255
255
255
255
255
255
255
255
255
255
255
255
255
255
255
255
255
255
255
255
255
255
255
255
255
255
255
255
255
255
255
255
255
255
255
255
255
255
255
255
255
255
255
255
255
255
255
255
255
255
255
255
255
255
130
0
0
255
255
255
0
255
0
255
255
255
255
255
255
90
0
0
255
255
255
255
255
255
255
255
255
255
255
255
0
0
255
255
255
255
255
255
255
255
255
255
255
255
255
61
0
0
81
0
0
81
0
0
71
0
0
255
255
255
255
255
255
255
255
255
255
255
255
255
255
255
110
0
0
255
255
255
255
255
255
255
255
255
255
255
255
255
255
255
255
255
255
255
255
255
100
0
0
255
255
255
255
255
255
255
255
255
255
255
255
255
255
255
100
0
0
255
255
255
255
255
255
255
255
255
180
0
0
21
0
0
11
0
0
11
0
0
11
0
0
11
0
0
11
0
0
11
0
0
11
0
0
11
0
0
31
0
0
255
255
255
255
255
255
255
255
255
255
255
255
255
255
255
255
255
255
255
255
255
255
255
255
255
255
255
255
255
255
255
255
255
255
255
255
255
255
255
255
255
255
255
255
255
255
255
255
255
255
255
255
255
255
255
255
255
255
255
255
255
255
255
255
255
255
255
255
255
255
255
255
255
255
255
255
255
255
255
255
255
255
255
255
150
0
0
255
255
255
255
255
255
255
255
255
170
0
0
255
255
255
255
255
255
255
255
255
150
0
0
255
255
255
255
255
255
255
255
255
255
255
255
255
255
255
255
255
255
255
255
255
255
255
255
255
255
255
255
255
255
255
255
255
255
255
255
255
255
255
255
255
255
255
255
255
255
255
255
255
255
255
255
255
255
255
255
255
255
255
255
255
255
255
255
255
255
255
255
255
255
255
255
255
255
255
255
255
255
255
255
255
255
255
255
255
255
255
255
255
255
255
255
255
255
255
255
255
255
255
255
255
255
255
255
255
255
255
255
255
255
255
255
255
255
130
0
0
255
255
255
255
255
255
255
255
255
255
255
255
255
255
255
255
255
255
255
255
255
255
255
255
255
255
255
255
255
255
255
255
255
255
255
255
255
255
255
61
0
0
51
0
0
51
0
0
51
0
0
51
0
0
81
0
0
71
0
0
255
255
255
255
255
255
255
255
255
100
0
0
255
255
255
255
255
255
255
255
255
255
255
255
255
255
255
255
255
255
255
255
255
100
0
0
255
255
255
255
255
255
255
255
255
255
255
255
255
255
255
100
0
0
255
255
255
255
255
255
255
255
255
180
0
0
255
255
255
21
0
0
41
0
0
41
0
0
11
0
0
11
0
0
11
0
0
41
0
0
31
0
0
255
255
255
255
255
255
255
255
255
255
255
255
255
255
255
255
255
255
255
255
255
255
255
255
255
255
255
255
255
255
255
255
255
255
255
255
255
255
255
255
255
255
255
255
255
255
255
255
255
255
255
255
255
255
255
255
255
255
255
255
255
255
255
255
255
255
255
255
255
255
255
255
255
255
255
255
255
255
255
255
255
255
255
255
255
255
255
255
255
255
255
255
255
255
255
255
255
255
255
160
0
0
255
255
255
255
255
255
255
255
255
255
255
255
255
255
255
255
255
255
255
255
255
255
255
255
255
255
255
255
255
255
255
255
255
255
255
255
255
255
255
255
255
255
255
255
255
255
255
255
255
255
255
255
255
255
255
255
255
255
255
255
255
255
255
255
255
255
255
255
255
255
255
255
255
255
255
255
255
255
255
255
255
255
255
255
140
0
0
255
255
255
255
255
255
255
255
255
255
255
255
255
255
255
255
255
255
255
255
255
255
255
255
255
255
255
255
255
255
255
255
255
255
255
255
255
255
255
120
0
0
255
255
255
255
255
255
255
255
255
255
255
255
255
255
255
255
255
255
255
255
255
255
255
255
255
255
255
255
255
255
255
255
255
255
255
255
255
255
255
51
0
0
51
0
0
51
0
0
51
0
0
51
0
0
51
0
0
51
0
0
255
255
255
255
255
255
255
255
255
100
0
0
255
255
255
255
255
255
255
255
255
255
255
255
255
255
255
255
255
255
255
255
255
90
0
0
255
255
255
255
255
255
255
255
255
255
255
255
255
255
255
100
0
0
255
255
255
255
255
255
255
255
255
180
0
0
255
255
255
255
255
255
255
255
255
255
255
255
21
0
0
41
0
0
31
0
0
255
255
255
255
255
255
255
255
255
255
255
255
255
255
255
255
255
255
255
255
255
255
255
255
255
255
255
255
255
255
255
255
255
255
255
255
255
255
255
255
255
255
255
255
255
255
255
255
255
255
255
255
255
255
255
255
255
255
255
255
255
255
255
255
255
255
255
255
255
255
255
255
255
255
255
255
255
255
255
255
255
255
255
255
255
255
255
255
255
255
255
255
255
255
255
255
255
255
255
255
255
255
255
255
255
160
0
0
255
255
255
255
255
255
255
255
255
255
255
255
255
255
255
255
255
255
255
255
255
255
255
255
255
255
255
255
255
255
255
255
255
255
255
255
255
255
255
255
255
255
255
255
255
255
255
255
255
255
255
255
255
255
255
255
255
255
255
255
255
255
255
255
255
255
255
255
255
255
255
255
255
255
255
255
255
255
255
255
255
255
255
255
130
0
0
255
255
255
255
255
255
255
255
255
255
255
255
255
255
255
255
255
255
255
255
255
255
255
255
140
0
0
255
255
255
255
255
255
255
255
255
255
255
255
255
255
255
255
255
255
255
255
255
255
255
255
255
255
255
255
255
255
255
255
255
255
255
255
110
0
0
255
255
255
255
255
255
255
255
255
255
255
255
255
255
255
51
0
0
51
0
0
51
0
0
51
0
0
51
0
0
51
0
0
51
0
0
71
0
0
255
255
255
255
255
255
100
0
0
255
255
255
255
255
255
255
255
255
255
255
255
255
255
255
255
255
255
255
255
255
255
255
255
255
255
255
255
255
255
255
255
255
255
255
255
255
255
255
100
0
0
255
255
255
255
255
255
255
255
255
180
0
0
255
255
255
255
255
255
255
255
255
255
255
255
255
255
255
255
255
255
255
255
255
255
255
255
255
255
255
255
255
255
255
255
255
255
255
255
255
255
255
255
255
255
255
255
255
255
255
255
255
255
255
255
255
255
255
255
255
255
255
255
255
255
255
255
255
255
255
255
255
255
255
255
255
255
255
255
255
255
255
255
255
255
255
255
255
255
255
255
255
255
255
255
255
255
255
255
255
255
255
170
0
0
255
255
255
0
0
255
255
255
255
255
255
255
255
255
255
255
255
255
255
255
255
255
255
255
160
0
0
255
255
255
255
255
255
255
255
255
255
255
255
255
255
255
255
255
255
0
0
255
255
255
255
255
255
255
255
255
255
255
255
255
255
255
255
255
255
255
140
0
0
255
255
255
255
255
255
255
255
255
255
255
255
255
255
255
255
255
255
255
255
255
255
255
255
0
255
0
255
255
255
0
255
0
255
255
255
255
255
255
255
255
255
130
0
0
255
255
255
255
255
255
255
255
255
0
0
255
255
255
255
255
255
255
255
255
255
255
255
255
130
0
0
255
255
255
255
255
255
255
255
255
255
255
255
255
255
255
255
255
255
255
255
255
255
255
255
255
255
255
255
255
255
255
255
255
255
255
255
100
0
0
255
255
255
0
255
0
255
255
255
255
255
255
61
0
0
51
0
0
51
0
0
51
0
0
51
0
0
51
0
0
51
0
0
51
0
0
51
0
0
255
255
255
255
255
255
100
0
0
255
255
255
255
255
255
255
255
255
255
255
255
255
255
255
255
255
255
255
255
255
255
255
255
255
255
255
255
255
255
255
255
255
255
255
255
255
255
255
90
0
0
255
255
255
255
255
255
255
255
255
180
0
0
255
255
255
255
255
255
255
255
255
255
255
255
255
255
255
255
255
255
255
255
255
255
255
255
255
255
255
255
255
255
255
255
255
255
255
255
255
255
255
255
255
255
255
255
255
255
255
255
255
255
255
255
255
255
255
255
255
255
255
255
255
255
255
255
255
255
255
255
255
255
255
255
255
255
255
255
255
255
255
255
255
255
255
255
255
255
255
255
255
255
255
255
255
255
255
255
255
255
255
160
0
0
255
255
255
255
255
255
255
255
255
255
255
255
255
255
255
255
255
255
255
255
255
255
255
255
160
0
0
255
255
255
255
255
255
255
255
255
255
255
255
255
255
255
255
255
255
255
255
255
255
255
255
255
255
255
255
255
255
255
255
255
255
255
255
255
255
255
130
0
0
255
255
255
255
255
255
255
255
255
255
255
255
255
255
255
255
255
255
255
255
255
255
255
255
255
255
255
255
255
255
255
255
255
255
255
255
255
255
255
255
255
255
130
0
0
255
255
255
255
255
255
255
255
255
255
255
255
255
255
255
255
255
255
255
255
255
255
255
255
130
0
0
255
255
255
0
255
0
255
255
255
255
255
255
255
255
255
255
255
255
255
255
255
255
255
255
255
255
255
255
255
255
255
255
255
255
255
255
100
0
0
255
255
255
0
255
0
255
255
255
61
0
0
51
0
0
51
0
0
51
0
0
51
0
0
51
0
0
51
0
0
51
0
0
51
0
0
51
0
0
255
255
255
255
255
255
100
0
0
255
255
255
255
255
255
255
255
255
255
255
255
255
255
255
255
255
255
255
255
255
0
0
255
255
255
255
255
255
255
255
255
255
255
255
255
255
255
255
255
255
255
255
255
255
255
255
255
255
255
255
180
0
0
255
255
255
255
255
255
255
255
255
255
255
255
255
255
255
255
255
255
255
255
255
255
255
255
255
255
255
255
255
255
255
255
255
255
255
255
255
255
255
255
255
255
255
255
255
255
255
255
255
255
255
255
255
255
255
255
255
255
255
255
255
255
255
255
255
255
255
255
255
255
255
255
255
255
255
255
255
255
255
255
255
255
255
255
255
255
255
255
255
255
255
255
255
255
255
255
255
255
255
160
0
0
255
255
255
255
255
255
255
255
255
0
255
0
255
255
255
255
255
255
255
255
255
255
255
255
160
0
0
255
255
255
255
255
255
255
255
255
255
255
255
255
255
255
255
255
255
255
255
255
255
255
255
255
255
255
255
255
255
255
255
255
255
255
255
255
255
255
130
0
0
255
255
255
255
255
255
61
0
0
81
0
0
71
0
0
255
255
255
255
255
255
0
255
0
255
255
255
255
255
255
255
255
255
255
255
255
255
255
255
255
255
255
130
0
0
255
255
255
255
255
255
255
255
255
255
255
255
255
255
255
61
0
0
81
0
0
81
0
0
81
0
0
81
0
0
71
0
0
255
255
255
0
255
0
255
255
255
61
0
0
71
0
0
255
255
255
255
255
255
255
255
255
255
255
255
255
255
255
100
0
0
255
255
255
61
0
0
81
0
0
51
0
0
51
0
0
51
0
0
51
0
0
51
0
0
51
0
0
51
0
0
51
0
0
51
0
0
51
0
0
255
255
255
255
255
255
100
0
0
255
255
255
255
255
255
255
255
255
255
255
255
255
255
255
255
255
255
255
255
255
255
255
255
255
255
255
255
255
255
255
255
255
255
255
255
255
255
255
255
255
255
255
255
255
255
255
255
255
255
255
180
0
0
255
255
255
255
255
255
255
255
255
255
255
255
255
255
255
255
255
255
255
255
255
255
255
255
255
255
255
255
255
255
255
255
255
255
255
255
255
255
255
255
255
255
255
255
255
255
255
255
255
255
255
255
255
255
255
255
255
255
255
255
255
255
255
255
255
255
255
255
255
255
255
255
255
255
255
61
0
0
255
255
255
255
255
255
255
255
255
255
255
255
255
255
255
255
255
255
255
255
255
160
0
0
255
255
255
255
255
255
255
255
255
255
255
255
255
255
255
255
255
255
255
255
255
255
255
255
160
0
0
255
255
255
255
255
255
255
255
255
61
0
0
71
0
0
255
255
255
255
255
255
255
255
255
255
255
255
255
255
255
255
255
255
255
255
255
255
255
255
130
0
0
255
255
255
255
255
255
51
0
0
51
0
0
51
0
0
81
0
0
71
0
0
255
255
255
255
255
255
255
255
255
255
255
255
255
255
255
0
255
0
255
255
255
130
0
0
255
255
255
255
255
255
0
255
0
255
255
255
61
0
0
51
0
0
51
0
0
51
0
0
51
0
0
51
0
0
51
0
0
71
0
0
255
255
255
255
255
255
51
0
0
51
0
0
81
0
0
71
0
0
255
255
255
255
255
255
255
255
255
100
0
0
255
255
255
51
0
0
51
0
0
51
0
0
51
0
0
51
0
0
51
0
0
51
0
0
51
0
0
51
0
0
51
0
0
51
0
0
51
0
0
0
255
0
255
255
255
100
0
0
255
255
255
255
255
255
255
255
255
255
255
255
255
255
255
255
255
255
255
255
255
255
255
255
255
255
255
255
255
255
255
255
255
255
255
255
255
255
255
255
255
255
255
255
255
255
255
255
255
255
255
180
0
0
255
255
255
255
255
255
255
255
255
255
255
255
255
255
255
255
255
255
255
255
255
255
255
255
255
255
255
255
255
255
255
255
255
255
255
255
255
255
255
255
255
255
255
255
255
255
255
255
255
255
255
255
255
255
255
255
255
255
255
255
255
255
255
255
255
255
61
0
0
81
0
0
81
0
0
51
0
0
255
255
255
255
255
255
255
255
255
61
0
0
71
0
0
255
255
255
255
255
255
160
0
0
255
255
255
255
255
255
255
255
255
255
255
255
255
255
255
255
255
255
255
255
255
255
255
255
160
0
0
255
255
255
255
255
255
61
0
0
51
0
0
51
0
0
71
0
0
255
255
255
255
255
255
0
255
0
255
255
255
0
255
0
255
255
255
255
255
255
130
0
0
255
255
255
61
0
0
51
0
0
51
0
0
51
0
0
51
0
0
51
0
0
255
255
255
140
0
0
255
255
255
0
255
0
255
255
255
255
255
255
255
255
255
130
0
0
0
255
0
255
255
255
255
255
255
61
0
0
51
0
0
51
0
0
51
0
0
51
0
0
51
0
0
51
0
0
51
0
0
51
0
0
81
0
0
81
0
0
51
0
0
51
0
0
51
0
0
51
0
0
81
0
0
71
0
0
255
255
255
100
0
0
255
255
255
51
0
0
51
0
0
51
0
0
51
0
0
51
0
0
51
0
0
51
0
0
51
0
0
51
0
0
51
0
0
51
0
0
51
0
0
71
0
0
0
255
0
100
0
0
255
255
255
255
255
255
255
255
255
255
255
255
255
255
255
255
255
255
255
255
255
255
255
255
255
255
255
110
0
0
255
255
255
255
255
255
255
255
255
255
255
255
255
255
255
255
255
255
255
255
255
180
0
0
255
255
255
255
255
255
255
255
255
255
255
255
255
255
255
255
255
255
255
255
255
255
255
255
255
255
255
255
255
255
255
255
255
255
255
255
255
255
255
255
255
255
255
255
255
255
255
255
255
255
255
255
255
255
255
255
255
255
255
255
255
255
255
61
0
0
51
0
0
51
0
0
51
0
0
51
0
0
255
255
255
61
0
0
81
0
0
51
0
0
51
0
0
81
0
0
81
0
0
81
0
0
81
0
0
71
0
0
255
255
255
255
255
255
255
255
255
255
255
255
61
0
0
71
0
0
160
0
0
255
255
255
255
255
255
51
0
0
51
0
0
51
0
0
51
0
0
255
255
255
255
255
255
255
255
255
255
255
255
255
255
255
255
255
255
255
255
255
130
0
0
255
255
255
51
0
0
51
0
0
51
0
0
51
0
0
51
0
0
51
0
0
71
0
0
130
0
0
255
255
255
255
255
255
255
255
255
255
255
255
255
255
255
130
0
0
255
255
255
255
255
255
61
0
0
51
0
0
51
0
0
51
0
0
51
0
0
51
0
0
51
0
0
51
0
0
51
0
0
51
0
0
51
0
0
51
0
0
51
0
0
51
0
0
51
0
0
51
0
0
51
0
0
51
0
0
81
0
0
81
0
0
81
0
0
51
0
0
51
0
0
51
0
0
51
0
0
51
0
0
51
0
0
51
0
0
51
0
0
51
0
0
51
0
0
51
0
0
51
0
0
51
0
0
71
0
0
100
0
0
255
255
255
255
255
255
255
255
255
255
255
255
255
255
255
255
255
255
255
255
255
255
255
255
255
255
255
100
0
0
255
255
255
255
255
255
255
255
255
255
255
255
61
0
0
81
0
0
81
0
0
180
0
0
255
255
255
255
255
255
255
255
255
255
255
255
255
255
255
255
255
255
255
255
255
255
255
255
255
255
255
255
255
255
61
0
0
81
0
0
81
0
0
81
0
0
71
0
0
255
255
255
255
255
255
255
255
255
255
255
255
255
255
255
61
0
0
51
0
0
51
0
0
51
0
0
51
0
0
51
0
0
61
0
0
51
0
0
51
0
0
51
0
0
51
0
0
51
0
0
51
0
0
51
0
0
51
0
0
51
0
0
81
0
0
81
0
0
81
0
0
81
0
0
51
0
0
51
0
0
81
0
0
81
0
0
81
0
0
51
0
0
51
0
0
51
0
0
51
0
0
71
0
0
255
255
255
255
255
255
0
255
0
255
255
255
255
255
255
255
255
255
130
0
0
255
255
255
51
0
0
51
0
0
51
0
0
51
0
0
51
0
0
51
0
0
51
0
0
130
0
0
255
255
255
255
255
255
255
255
255
255
255
255
255
255
255
130
0
0
255
255
255
61
0
0
51
0
0
51
0
0
51
0
0
51
0
0
51
0
0
51
0
0
51
0
0
51
0
0
51
0
0
51
0
0
51
0
0
51
0
0
51
0
0
51
0
0
51
0
0
51
0
0
51
0
0
51
0
0
51
0
0
51
0
0
51
0
0
51
0
0
51
0
0
51
0
0
51
0
0
51
0
0
51
0
0
51
0
0
51
0
0
51
0
0
51
0
0
51
0
0
51
0
0
51
0
0
51
0
0
81
0
0
71
0
0
255
255
255
0
255
0
0
255
0
0
255
0
255
255
255
255
255
255
255
255
255
255
255
255
100
0
0
255
255
255
0
255
0
255
255
255
61
0
0
51
0
0
51
0
0
51
0
0
180
0
0
71
0
0
255
255
255
255
255
255
255
255
255
255
255
255
255
255
255
61
0
0
81
0
0
81
0
0
81
0
0
51
0
0
51
0
0
51
0
0
51
0
0
51
0
0
71
0
0
255
255
255
255
255
255
61
0
0
81
0
0
51
0
0
51
0
0
51
0
0
51
0
0
51
0
0
51
0
0
51
0
0
51
0
0
51
0
0
51
0
0
51
0
0
51
0
0
51
0
0
51
0
0
51
0
0
51
0
0
51
0
0
51
0
0
51
0
0
51
0
0
51
0
0
51
0
0
51
0
0
51
0
0
51
0
0
51
0
0
51
0
0
51
0
0
51
0
0
51
0
0
255
255
255
255
255
255
255
255
255
255
255
255
255
255
255
255
255
255
130
0
0
61
0
0
51
0
0
51
0
0
51
0
0
51
0
0
51
0
0
51
0
0
51
0
0
130
0
0
255
255
255
255
255
255
255
255
255
61
0
0
81
0
0
81
0
0
81
0
0
51
0
0
51
0
0
51
0
0
51
0
0
51
0
0
51
0
0
51
0
0
51
0
0
51
0
0
51
0
0
51
0
0
51
0
0
51
0
0
51
0
0
51
0
0
51
0
0
51
0
0
51
0
0
51
0
0
51
0
0
51
0
0
51
0
0
51
0
0
51
0
0
51
0
0
51
0
0
51
0
0
51
0
0
51
0
0
51
0
0
51
0
0
51
0
0
51
0
0
51
0
0
51
0
0
51
0
0
51
0
0
51
0
0
81
0
0
81
0
0
81
0
0
81
0
0
81
0
0
71
0
0
255
255
255
255
255
255
100
0
0
0
255
0
61
0
0
81
0
0
51
0
0
51
0
0
51
0
0
51
0
0
180
0
0
51
0
0
81
0
0
81
0
0
81
0
0
81
0
0
81
0
0
51
0
0
51
0
0
51
0
0
51
0
0
51
0
0
51
0
0
51
0
0
51
0
0
51
0
0
51
0
0
81
0
0
81
0
0
51
0
0
51
0
0
51
0
0
51
0
0
51
0
0
51
0
0
51
0
0
51
0
0
51
0
0
51
0
0
51
0
0
51
0
0
51
0
0
51
0
0
51
0
0
51
0
0
51
0
0
51
0
0
51
0
0
51
0
0
51
0
0
51
0
0
51
0
0
51
0
0
51
0
0
51
0
0
51
0
0
51
0
0
51
0
0
51
0
0
51
0
0
51
0
0
71
0
0
255
255
255
255
255
255
255
255
255
61
0
0
81
0
0
81
0
0
51
0
0
51
0
0
51
0
0
51
0
0
51
0
0
51
0
0
51
0
0
51
0
0
51
0
0
81
0
0
81
0
0
81
0
0
51
0
0
51
0
0
51
0
0
51
0
0
51
0
0
51
0
0
51
0
0
51
0
0
51
0
0
51
0
0
51
0
0
51
0
0
51
0
0
51
0
0
51
0
0
51
0
0
51
0
0
51
0
0
51
0
0
51
0
0
51
0
0
51
0
0
51
0
0
51
0
0
51
0
0
51
0
0
51
0
0
51
0
0
51
0
0
51
0
0
51
0
0
51
0
0
51
0
0
51
0
0
51
0
0
51
0
0
51
0
0
51
0
0
51
0
0
51
0
0
51
0
0
51
0
0
51
0
0
51
0
0
51
0
0
51
0
0
51
0
0
51
0
0
81
0
0
81
0
0
81
0
0
81
0
0
51
0
0
51
0
0
51
0
0
51
0
0
51
0
0
51
0
0
180
0
0
51
0
0
51
0
0
51
0
0
51
0
0
51
0
0
51
0
0
51
0
0
51
0
0
51
0
0
51
0
0
51
0
0
51
0
0
51
0
0
51
0
0
51
0
0
51
0
0
51
0
0
51
0
0
51
0
0
51
0
0
51
0
0
51
0
0
51
0
0
51
0
0
51
0
0
51
0
0
51
0
0
51
0
0
51
0
0
51
0
0
51
0
0
51
0
0
51
0
0
51
0
0
51
0
0
51
0
0
51
0
0
51
0
0
51
0
0
51
0
0
51
0
0
51
0
0
51
0
0
51
0
0
51
0
0
51
0
0
51
0
0
51
0
0
51
0
0
51
0
0
51
0
0
81
0
0
81
0
0
81
0
0
51
0
0
51
0
0
51
0
0
51
0
0
51
0
0
51
0
0
51
0
0
51
0
0
51
0
0
51
0
0
51
0
0
51
0
0
51
0
0
51
0
0
51
0
0
51
0
0
51
0
0
51
0
0
51
0
0
51
0
0
51
0
0
51
0
0
51
0
0
51
0
0
51
0
0
51
0
0
51
0
0
51
0
0
51
0
0
51
0
0
51
0
0
51
0
0
51
0
0
51
0
0
51
0
0
51
0
0
51
0
0
51
0
0
51
0
0
51
0
0
51
0
0
51
0
0
51
0
0
51
0
0
51
0
0
51
0
0
51
0
0
51
0
0
51
0
0
51
0
0
51
0
0
51
0
0
51
0
0
51
0
0
51
0
0
51
0
0
51
0
0
51
0
0
51
0
0
51
0
0
51
0
0
51
0
0
51
0
0
51
0
0
51
0
0
51
0
0
51
0
0
51
0
0
51
0
0
51
0
0
51
0
0
51
0
0
51
0
0
180
0
0
51
0
0
51
0
0
51
0
0
51
0
0
51
0
0
51
0
0
51
0
0
51
0
0
51
0
0
51
0
0
51
0
0
51
0
0
51
0
0
51
0
0
51
0
0
51
0
0
51
0
0
51
0
0
51
0
0
51
0
0
51
0
0
51
0
0
51
0
0
51
0
0
51
0
0
51
0
0
51
0
0
51
0
0
51
0
0
51
0
0
51
0
0
51
0
0
51
0
0
51
0
0
51
0
0
51
0
0
51
0
0
51
0
0
51
0
0
51
0
0
51
0
0
51
0
0
51
0
0
51
0
0
51
0
0
51
0
0
51
0
0
51
0
0
51
0
0
51
0
0
51
0
0
51
0
0
51
0
0
51
0
0
51
0
0
51
0
0
51
0
0
51
0
0
51
0
0
51
0
0
51
0
0
51
0
0
51
0
0
51
0
0
51
0
0
51
0
0
51
0
0
51
0
0
51
0
0
51
0
0
51
0
0
51
0
0
51
0
0
51
0
0
51
0
0
51
0
0
51
0
0
51
0
0
51
0
0
51
0
0
51
0
0
51
0
0
51
0
0
51
0
0
51
0
0
51
0
0
51
0
0
51
0
0
51
0
0
51
0
0
51
0
0
51
0
0
51
0
0
51
0
0
51
0
0
51
0
0
51
0
0
51
0
0
51
0
0
51
0
0
51
0
0
51
0
0
51
0
0
51
0
0
51
0
0
51
0
0
51
0
0
51
0
0
51
0
0
51
0
0
51
0
0
51
0
0
51
0
0
51
0
0
51
0
0
51
0
0
51
0
0
51
0
0
51
0
0
51
0
0
51
0
0
51
0
0
51
0
0
51
0
0
51
0
0
51
0
0
51
0
0
180
0
0
51
0
0
51
0
0
51
0
0
51
0
0
51
0
0
51
0
0
51
0
0
51
0
0
51
0
0
51
0
0
51
0
0
51
0
0
51
0
0
51
0
0
51
0
0
51
0
0
51
0
0
51
0
0
51
0
0
51
0
0
51
0
0
51
0
0
51
0
0
51
0
0
51
0
0
51
0
0
